<svg width="502" height="82" viewBox="0 0 502 82" fill="none" xmlns="http://www.w3.org/2000/svg">
<rect x="1" y="1" width="500" height="80" rx="23" fill="white"/>
<rect x="1" y="1" width="500" height="80" rx="23" stroke="white" stroke-width="2"/>
<g clip-path="url(#clip0_51_19)">
<rect x="24" y="16" width="50" height="50" rx="25" fill="#FAFAFA"/>
<path d="M46.1206 54.2733C48.8115 52.7488 49.757 49.3314 48.2325 46.6405C46.7079 43.9496 43.2906 43.004 40.5997 44.5286C37.9087 46.0531 36.9632 49.4705 38.4877 52.1614C40.0123 54.8523 43.4296 55.7979 46.1206 54.2733Z" stroke="#1C274C" stroke-width="2.1"/>
<path opacity="0.5" d="M53.5066 45.6314L52.6213 45.7859C51.4482 45.9905 50.382 46.5945 49.6034 47.4957L49.0158 48.1756" stroke="#1C274C" stroke-width="2.1" stroke-linecap="round"/>
<path opacity="0.5" d="M38.4876 52.1614L33.624 41.4093C32.8916 39.7901 32.5254 38.9806 32.6537 38.1562C32.782 37.3318 33.3769 36.6718 34.5667 35.3519L35.0787 34.7838" stroke="#1C274C" stroke-width="2.1" stroke-linecap="round"/>
<path d="M37.402 40.6289C37.6032 40.3387 37.8416 40.0762 38.1112 39.8481C38.9408 39.1545 39.988 38.7748 41.0695 38.7756C41.1767 38.7781 41.2822 38.8029 41.3793 38.8483C41.4764 38.8937 41.563 38.9588 41.6337 39.0395C41.7198 39.131 41.7866 39.239 41.83 39.357C41.8734 39.4749 41.8925 39.6005 41.8862 39.726C41.8796 39.8365 41.8506 39.9445 41.8011 40.0435C41.7516 40.1425 41.6825 40.2305 41.5981 40.302C41.4175 40.4477 41.195 40.5315 40.9633 40.5412L40.9353 40.5427C40.1741 40.5686 39.4324 40.7899 38.7815 41.1853C38.5605 41.319 38.3504 41.47 38.1532 41.6367C38.0561 41.7192 37.9648 41.8044 37.8814 41.8897L37.7965 41.9766C37.6706 42.0948 37.5641 42.2321 37.4809 42.3833C37.4443 42.4546 37.4226 42.5326 37.4174 42.6126C37.4337 42.6158 37.4487 42.6237 37.4607 42.6353C37.4726 42.6469 37.4811 42.6616 37.4849 42.6778C37.4899 42.6948 37.49 42.7128 37.4852 42.7299C37.4803 42.7469 37.4706 42.7622 37.4573 42.7739C37.4515 42.7787 37.4451 42.7829 37.4383 42.7862C37.3769 42.8229 37.3074 42.8439 37.236 42.8475C37.1646 42.8512 37.0934 42.8373 37.0285 42.8071C36.9499 42.7555 36.8844 42.6862 36.8373 42.6047C36.7902 42.5232 36.7629 42.4319 36.7574 42.3379C36.697 41.9105 36.9139 41.3355 37.402 40.6289Z" fill="#1C274C"/>
<path d="M61.7466 48.5483C64.4161 47.0359 65.3541 43.6458 63.8417 40.9763C62.3293 38.3068 58.9392 37.3688 56.2697 38.8812C53.6002 40.3937 52.6622 43.7837 54.1746 46.4532C55.687 49.1227 59.0771 50.0608 61.7466 48.5483Z" stroke="#1C274C" stroke-width="2.1"/>
<path opacity="0.5" d="M63.9413 40.9712L57.2184 31.2725C56.2061 29.8119 55.7 29.0816 54.9269 28.7679C54.1538 28.4542 53.2818 28.6253 51.538 28.9674L50.7876 29.1146" stroke="#1C274C" stroke-width="2.1" stroke-linecap="round"/>
<path d="M53.112 35.9268C53.434 35.6903 53.7895 35.5034 54.1668 35.3721C54.2819 35.3257 54.4001 35.2768 54.5145 35.2267L54.6701 35.1589C55.2822 34.8666 55.9322 34.6617 56.6012 34.55C57.2306 34.4537 57.8737 34.5047 58.48 34.699C59.2313 34.9611 59.6679 35.2831 59.8153 35.6847C59.8354 35.7359 59.8394 35.7918 59.8269 35.8453C59.8144 35.8987 59.786 35.9471 59.7455 35.9841C59.7123 36.0116 59.6719 36.0291 59.6292 36.0347C59.3797 36.0588 59.128 36.0513 58.8804 36.0124C58.6593 35.98 58.4357 35.9691 58.2126 35.9798C57.1289 36.0555 56.084 36.4134 55.1815 37.0181C55.0751 37.0933 54.9724 37.1715 54.8733 37.2474C54.3661 37.6345 53.928 37.969 53.2267 37.7542C53.0342 37.6844 52.8702 37.553 52.7601 37.3803C52.6501 37.2076 52.6002 37.0035 52.6182 36.7995C52.6661 36.4564 52.8427 36.1446 53.112 35.9268Z" fill="#1C274C"/>
</g>
<rect x="25" y="17" width="48" height="48" rx="24" stroke="black" stroke-opacity="0.1" stroke-width="2"/>
<g opacity="0.2">
<path d="M370 32.3334V49.6667" stroke="#1C274C" stroke-width="2.66667" stroke-linecap="round"/>
<path d="M364 27.6666V54.3333" stroke="#1C274C" stroke-width="2.66667" stroke-linecap="round"/>
<path d="M382 32.3334V49.6667" stroke="#1C274C" stroke-width="2.66667" stroke-linecap="round"/>
<path d="M358 35V47" stroke="#1C274C" stroke-width="2.66667" stroke-linecap="round"/>
<path d="M376 37V45" stroke="#1C274C" stroke-width="2.66667" stroke-linecap="round"/>
</g>
<g opacity="0.2">
<path d="M338 32.3334V49.6667" stroke="#1C274C" stroke-width="2.66667" stroke-linecap="round"/>
<path d="M332 27.6666V54.3333" stroke="#1C274C" stroke-width="2.66667" stroke-linecap="round"/>
<path d="M350 32.3334V49.6667" stroke="#1C274C" stroke-width="2.66667" stroke-linecap="round"/>
<path d="M326 35V47" stroke="#1C274C" stroke-width="2.66667" stroke-linecap="round"/>
<path d="M344 37V45" stroke="#1C274C" stroke-width="2.66667" stroke-linecap="round"/>
</g>
<g opacity="0.2">
<path d="M306 32.3334V49.6667" stroke="#1C274C" stroke-width="2.66667" stroke-linecap="round"/>
<path d="M300 27.6666V54.3333" stroke="#1C274C" stroke-width="2.66667" stroke-linecap="round"/>
<path d="M318 32.3334V49.6667" stroke="#1C274C" stroke-width="2.66667" stroke-linecap="round"/>
<path d="M294 35V47" stroke="#1C274C" stroke-width="2.66667" stroke-linecap="round"/>
<path d="M312 37V45" stroke="#1C274C" stroke-width="2.66667" stroke-linecap="round"/>
</g>
<g opacity="0.2">
<path d="M274 32.3334V49.6667" stroke="#1C274C" stroke-width="2.66667" stroke-linecap="round"/>
<path d="M268 27.6666V54.3333" stroke="#1C274C" stroke-width="2.66667" stroke-linecap="round"/>
<path d="M286 32.3334V49.6667" stroke="#1C274C" stroke-width="2.66667" stroke-linecap="round"/>
<path d="M262 35V47" stroke="#1C274C" stroke-width="2.66667" stroke-linecap="round"/>
<path d="M280 37V45" stroke="#1C274C" stroke-width="2.66667" stroke-linecap="round"/>
</g>
<path d="M242 32.3334V49.6667" stroke="#1C274C" stroke-width="2.66667" stroke-linecap="round"/>
<path d="M236 27.6666V54.3333" stroke="#1C274C" stroke-width="2.66667" stroke-linecap="round"/>
<path d="M254 32.3334V49.6667" stroke="#1C274C" stroke-width="2.66667" stroke-linecap="round"/>
<path d="M230 35V47" stroke="#1C274C" stroke-width="2.66667" stroke-linecap="round"/>
<path d="M248 37V45" stroke="#1C274C" stroke-width="2.66667" stroke-linecap="round"/>
<path d="M210 32.3334V49.6667" stroke="#1C274C" stroke-width="2.66667" stroke-linecap="round"/>
<path d="M204 27.6666V54.3333" stroke="#1C274C" stroke-width="2.66667" stroke-linecap="round"/>
<path d="M222 32.3334V49.6667" stroke="#1C274C" stroke-width="2.66667" stroke-linecap="round"/>
<path d="M198 35V47" stroke="#1C274C" stroke-width="2.66667" stroke-linecap="round"/>
<path d="M216 37V45" stroke="#1C274C" stroke-width="2.66667" stroke-linecap="round"/>
<path d="M178 32.3334V49.6667" stroke="#1C274C" stroke-width="2.66667" stroke-linecap="round"/>
<path d="M172 27.6666V54.3333" stroke="#1C274C" stroke-width="2.66667" stroke-linecap="round"/>
<path d="M190 32.3334V49.6667" stroke="#1C274C" stroke-width="2.66667" stroke-linecap="round"/>
<path d="M166 35V47" stroke="#1C274C" stroke-width="2.66667" stroke-linecap="round"/>
<path d="M184 37V45" stroke="#1C274C" stroke-width="2.66667" stroke-linecap="round"/>
<path d="M146 32.3334V49.6667" stroke="#1C274C" stroke-width="2.66667" stroke-linecap="round"/>
<path d="M140 27.6666V54.3333" stroke="#1C274C" stroke-width="2.66667" stroke-linecap="round"/>
<path d="M158 32.3334V49.6667" stroke="#1C274C" stroke-width="2.66667" stroke-linecap="round"/>
<path d="M134 35V47" stroke="#1C274C" stroke-width="2.66667" stroke-linecap="round"/>
<path d="M152 37V45" stroke="#1C274C" stroke-width="2.66667" stroke-linecap="round"/>
<path d="M114 32.3334V49.6667" stroke="#1C274C" stroke-width="2.66667" stroke-linecap="round"/>
<path d="M108 27.6666V54.3333" stroke="#1C274C" stroke-width="2.66667" stroke-linecap="round"/>
<path d="M126 32.3334V49.6667" stroke="#1C274C" stroke-width="2.66667" stroke-linecap="round"/>
<path d="M102 35V47" stroke="#1C274C" stroke-width="2.66667" stroke-linecap="round"/>
<path d="M120 37V45" stroke="#1C274C" stroke-width="2.66667" stroke-linecap="round"/>
<path d="M415.817 48.2173C414.807 48.2131 413.944 47.9467 413.228 47.4183C412.512 46.8899 411.964 46.1207 411.585 45.1108C411.206 44.1009 411.016 42.8842 411.016 41.4609C411.016 40.0419 411.206 38.8295 411.585 37.8239C411.969 36.8182 412.518 36.0511 413.234 35.5227C413.955 34.9943 414.815 34.7301 415.817 34.7301C416.818 34.7301 417.677 34.9964 418.393 35.5291C419.109 36.0575 419.656 36.8246 420.036 37.8303C420.419 38.8317 420.611 40.0419 420.611 41.4609C420.611 42.8885 420.421 44.1072 420.042 45.1172C419.663 46.1229 419.115 46.892 418.399 47.4247C417.683 47.9531 416.822 48.2173 415.817 48.2173ZM415.817 46.5107C416.703 46.5107 417.396 46.0781 417.894 45.2131C418.397 44.348 418.648 43.0973 418.648 41.4609C418.648 40.3743 418.533 39.456 418.303 38.706C418.077 37.9517 417.751 37.3807 417.325 36.9929C416.903 36.6009 416.401 36.4048 415.817 36.4048C414.935 36.4048 414.242 36.8395 413.739 37.7088C413.237 38.5781 412.983 39.8288 412.979 41.4609C412.979 42.5518 413.092 43.4744 413.317 44.2287C413.548 44.9787 413.874 45.5476 414.295 45.9354C414.717 46.3189 415.224 46.5107 415.817 46.5107ZM422.878 48V46.5682L427.308 41.9787C427.781 41.4801 428.171 41.0433 428.478 40.6683C428.789 40.2891 429.021 39.929 429.175 39.5881C429.328 39.2472 429.405 38.8849 429.405 38.5014C429.405 38.0668 429.302 37.6918 429.098 37.3764C428.893 37.0568 428.614 36.8118 428.26 36.6413C427.907 36.4666 427.508 36.3793 427.065 36.3793C426.596 36.3793 426.187 36.4751 425.838 36.6669C425.488 36.8587 425.22 37.1293 425.032 37.4787C424.845 37.8281 424.751 38.2372 424.751 38.706H422.866C422.866 37.9091 423.049 37.2124 423.415 36.6158C423.782 36.0192 424.285 35.5568 424.924 35.2287C425.563 34.8963 426.29 34.7301 427.104 34.7301C427.926 34.7301 428.65 34.8942 429.277 35.2223C429.907 35.5462 430.4 35.9893 430.753 36.5518C431.107 37.1101 431.284 37.7408 431.284 38.4439C431.284 38.9297 431.192 39.4048 431.009 39.8693C430.83 40.3338 430.517 40.8516 430.069 41.4226C429.622 41.9893 429 42.6776 428.203 43.4872L425.601 46.2102V46.3061H431.495V48H422.878ZM435.202 46.3764C434.853 46.3764 434.552 46.2528 434.301 46.0057C434.05 45.7543 433.924 45.4517 433.924 45.098C433.924 44.7486 434.05 44.4503 434.301 44.2031C434.552 43.9517 434.853 43.826 435.202 43.826C435.552 43.826 435.852 43.9517 436.104 44.2031C436.355 44.4503 436.481 44.7486 436.481 45.098C436.481 45.3324 436.421 45.5476 436.302 45.7436C436.187 45.9354 436.033 46.0888 435.841 46.2038C435.65 46.3189 435.437 46.3764 435.202 46.3764ZM435.202 39.8182C434.853 39.8182 434.552 39.6946 434.301 39.4474C434.05 39.196 433.924 38.8935 433.924 38.5398C433.924 38.1903 434.05 37.892 434.301 37.6449C434.552 37.3935 434.853 37.2678 435.202 37.2678C435.552 37.2678 435.852 37.3935 436.104 37.6449C436.355 37.892 436.481 38.1903 436.481 38.5398C436.481 38.7741 436.421 38.9893 436.302 39.1854C436.187 39.3771 436.033 39.5305 435.841 39.6456C435.65 39.7607 435.437 39.8182 435.202 39.8182ZM443.573 48.2173C442.563 48.2131 441.7 47.9467 440.984 47.4183C440.268 46.8899 439.72 46.1207 439.341 45.1108C438.962 44.1009 438.772 42.8842 438.772 41.4609C438.772 40.0419 438.962 38.8295 439.341 37.8239C439.725 36.8182 440.274 36.0511 440.99 35.5227C441.71 34.9943 442.571 34.7301 443.573 34.7301C444.574 34.7301 445.433 34.9964 446.149 35.5291C446.865 36.0575 447.412 36.8246 447.791 37.8303C448.175 38.8317 448.367 40.0419 448.367 41.4609C448.367 42.8885 448.177 44.1072 447.798 45.1172C447.419 46.1229 446.871 46.892 446.155 47.4247C445.439 47.9531 444.578 48.2173 443.573 48.2173ZM443.573 46.5107C444.459 46.5107 445.151 46.0781 445.65 45.2131C446.153 44.348 446.404 43.0973 446.404 41.4609C446.404 40.3743 446.289 39.456 446.059 38.706C445.833 37.9517 445.507 37.3807 445.081 36.9929C444.659 36.6009 444.156 36.4048 443.573 36.4048C442.691 36.4048 441.998 36.8395 441.495 37.7088C440.992 38.5781 440.739 39.8288 440.735 41.4609C440.735 42.5518 440.847 43.4744 441.073 44.2287C441.303 44.9787 441.629 45.5476 442.051 45.9354C442.473 46.3189 442.98 46.5107 443.573 46.5107ZM455.192 48.179C454.314 48.179 453.53 48.0277 452.839 47.7251C452.153 47.4226 451.61 47.0028 451.21 46.4659C450.813 45.9247 450.6 45.2983 450.57 44.5866H452.577C452.603 44.9744 452.733 45.3111 452.967 45.5966C453.206 45.8778 453.517 46.0952 453.901 46.2486C454.284 46.402 454.71 46.4787 455.179 46.4787C455.695 46.4787 456.151 46.3892 456.547 46.2102C456.947 46.0312 457.261 45.782 457.487 45.4624C457.712 45.1385 457.825 44.7656 457.825 44.3438C457.825 43.9048 457.712 43.5192 457.487 43.1868C457.265 42.8501 456.939 42.5859 456.509 42.3942C456.082 42.2024 455.567 42.1065 454.962 42.1065H453.856V40.4957H454.962C455.447 40.4957 455.874 40.4084 456.24 40.2337C456.611 40.0589 456.901 39.8161 457.109 39.505C457.318 39.1896 457.423 38.821 457.423 38.3991C457.423 37.9943 457.331 37.6428 457.148 37.3445C456.969 37.0419 456.713 36.8054 456.381 36.6349C456.053 36.4645 455.665 36.3793 455.217 36.3793C454.791 36.3793 454.393 36.4581 454.022 36.6158C453.656 36.7692 453.357 36.9908 453.127 37.2805C452.897 37.5661 452.773 37.9091 452.756 38.3097H450.845C450.866 37.6023 451.075 36.9801 451.472 36.4432C451.872 35.9062 452.401 35.4865 453.057 35.1839C453.713 34.8814 454.442 34.7301 455.243 34.7301C456.082 34.7301 456.807 34.8942 457.416 35.2223C458.03 35.5462 458.503 35.9787 458.835 36.5199C459.172 37.0611 459.338 37.6534 459.334 38.2969C459.338 39.0298 459.134 39.652 458.72 40.1634C458.311 40.6747 457.766 41.0178 457.084 41.1925V41.2947C457.953 41.4268 458.626 41.772 459.104 42.3303C459.585 42.8885 459.824 43.581 459.82 44.4077C459.824 45.1278 459.624 45.7734 459.219 46.3445C458.818 46.9155 458.271 47.3651 457.576 47.6932C456.881 48.017 456.087 48.179 455.192 48.179Z" fill="#FD6E41"/>
<defs>
<clipPath id="clip0_51_19">
<rect x="24" y="16" width="50" height="50" rx="25" fill="white"/>
</clipPath>
</defs>
</svg>
