<svg width="800" height="800" viewBox="0 0 800 800" fill="none" xmlns="http://www.w3.org/2000/svg">
<path d="M600 666.667C673.638 666.667 733.333 606.971 733.333 533.333C733.333 459.695 673.638 400 600 400C526.362 400 466.667 459.695 466.667 533.333C466.667 606.971 526.362 666.667 600 666.667Z" stroke="#1C274C" stroke-width="50"/>
<path d="M200 666.667C273.638 666.667 333.333 606.971 333.333 533.333C333.333 459.695 273.638 400 200 400C126.362 400 66.6665 459.695 66.6665 533.333C66.6665 606.971 126.362 666.667 200 666.667Z" stroke="#1C274C" stroke-width="50"/>
<path opacity="0.5" d="M466.667 540.457L444.803 532.657C415.83 522.317 384.173 522.317 355.197 532.657L333.333 540.457" stroke="#1C274C" stroke-width="50" stroke-linecap="round"/>
<path opacity="0.5" d="M66.6665 533.333L92.1048 253.511C95.9355 211.374 97.8508 190.305 110.185 174.733C122.518 159.161 142.588 152.471 182.727 139.091L200 133.333" stroke="#1C274C" stroke-width="50" stroke-linecap="round"/>
<path opacity="0.5" d="M733.333 533.333L707.893 253.511C704.063 211.374 702.15 190.305 689.817 174.733C677.483 159.161 657.413 152.471 617.273 139.091L600 133.333" stroke="#1C274C" stroke-width="50" stroke-linecap="round"/>
<path d="M542.249 255.583C551.694 254.463 561.253 254.763 570.61 256.473C573.538 256.862 576.56 257.235 579.519 257.541L583.538 257.963C599.648 259.091 615.519 262.474 630.689 268.013C644.857 273.405 657.581 282.01 667.861 293.151C680.349 307.397 685.613 319.192 683.954 329.243C683.769 330.537 683.196 331.743 682.31 332.704C681.424 333.665 680.268 334.334 678.994 334.624C677.983 334.804 676.942 334.694 675.991 334.308C670.539 331.878 665.414 328.77 660.74 325.057C656.541 321.793 652.036 318.942 647.289 316.544C623.952 305.394 598.103 300.545 572.311 302.479C569.224 302.788 566.179 303.204 563.235 303.611C548.185 305.679 535.184 307.466 523.176 294.785C520.008 291.08 518.153 286.432 517.899 281.563C517.646 276.695 519.009 271.88 521.776 267.866C526.794 261.321 534.113 256.933 542.249 255.583Z" fill="#1C274C"/>
<path d="M162.507 311.726C170.081 308.078 178.1 305.438 186.361 303.876C211.689 299.244 237.839 303.67 260.233 316.378C262.424 317.689 264.319 319.44 265.798 321.521C267.277 323.602 268.307 325.967 268.824 328.467C269.534 331.374 269.65 334.395 269.165 337.348C268.679 340.301 267.602 343.126 265.998 345.653C264.563 347.863 262.696 349.761 260.508 351.23C258.32 352.7 255.858 353.712 253.269 354.204C247.819 355.101 242.226 354.226 237.311 351.708L236.714 351.411C220.642 343.013 202.68 338.892 184.555 339.444C178.407 339.62 172.283 340.282 166.24 341.421C163.261 341.991 160.369 342.683 157.64 343.473L154.862 344.277C150.867 345.248 147.049 346.841 143.55 348.998C141.955 350.044 140.591 351.407 139.544 353.001C139.843 353.26 140.062 353.6 140.174 353.98C140.286 354.36 140.287 354.765 140.176 355.145C140.082 355.556 139.872 355.931 139.571 356.227C139.27 356.522 138.891 356.725 138.478 356.811C138.301 356.843 138.12 356.855 137.939 356.844C136.237 356.882 134.551 356.503 133.029 355.74C131.507 354.977 130.194 353.854 129.205 352.467C128.181 350.475 127.638 348.27 127.619 346.03C127.6 343.789 128.106 341.576 129.095 339.566C132.86 330.001 144.103 320.637 162.507 311.726Z" fill="#1C274C"/>
</svg>
